<svg width="95" height="29" viewBox="0 0 95 29" fill="none" xmlns="http://www.w3.org/2000/svg">
<g clip-path="url(#clip0_335_1567)">
<path d="M0.0474854 20.4936V0.471191H3.55308V20.4934L0.0474854 20.4936ZM12.5267 5.96808C8.03205 5.96808 4.92165 9.43528 4.92165 13.4038C4.92165 17.833 8.30536 20.8841 12.5616 20.8841C16.601 20.8841 20.1062 17.8891 20.1062 13.3943C20.1062 9.61456 17.2016 5.96808 12.5266 5.96808H12.5267ZM12.4854 9.36103C14.8376 9.36103 16.5688 11.198 16.5688 13.4166C16.5688 15.7689 14.66 17.4848 12.5488 17.4848C10.0543 17.4848 8.48444 15.5012 8.48444 13.4229C8.48444 11.1449 10.2569 9.36103 12.4854 9.36103ZM28.914 5.96808C24.4194 5.96808 21.3091 9.43528 21.3091 13.4038C21.3091 17.833 24.6928 20.8841 28.949 20.8841C32.9884 20.8841 36.4936 17.8891 36.4936 13.3943C36.4936 10.7474 35.3511 9.5729 35.3511 9.5729L36.3228 9.23864V6.38412H31.3438C31.3438 6.38412 30.2644 5.96808 28.914 5.96808ZM28.8728 9.36103C31.225 9.36103 32.9562 11.198 32.9562 13.4166C32.9562 15.7689 31.0474 17.4848 28.9362 17.4848C26.4417 17.4848 24.8717 15.5012 24.8717 13.4229C24.8717 11.1449 26.6443 9.36103 28.8728 9.36103ZM32.9314 21.4722C32.9314 23.8245 31.0226 25.5532 28.9114 25.5532C26.4169 25.5532 24.8407 23.5505 24.8407 21.4722H21.2843C21.2843 25.9014 24.668 28.9525 28.9242 28.9525C32.9636 28.9525 36.4688 25.967 36.4688 21.4722H32.9314ZM37.8977 20.4936V6.38412H41.4033V20.4935L37.8977 20.4936ZM44.8073 20.4936V9.5445H42.9274V6.38412H44.8073V2.05148H48.3128V6.38412H50.2435V9.5445H48.3129V20.4935L44.8073 20.4936Z" fill="white"/>
<path d="M41.9648 2.37697C41.9648 3.66317 40.9254 4.70596 39.6433 4.70596C38.3614 4.70596 37.322 3.66317 37.322 2.37697C37.322 1.09051 38.3614 0.0478516 39.6433 0.0478516C40.9256 0.0478516 41.9648 1.09064 41.9648 2.37697Z" fill="white"/>
<path d="M58.1248 5.95818C53.6088 5.95818 50.6976 9.42719 50.6976 13.5309C50.6976 17.7716 53.6185 20.8933 58.1979 20.8933C62.4694 20.8933 64.5707 18.2172 64.5707 18.2172L62.2273 15.8629C62.2273 15.8629 60.4579 17.7776 58.2422 17.7776C56.3952 17.7776 54.9185 16.7433 54.4033 14.8467H65.3264V13.8781C65.3264 10.0137 63.0971 5.95818 58.1247 5.95818H58.1248ZM58.0136 9.0549C59.6285 9.0549 61.28 9.92158 61.6493 11.9922H54.308C54.5987 10.5367 55.8679 9.05481 58.0136 9.05481L58.0136 9.0549ZM74.095 20.8951C69.5663 20.8951 66.4805 17.4345 66.4805 13.3543C66.4805 9.14353 69.968 5.95551 74.0805 5.95551C78.056 5.95551 80.091 8.77135 80.091 8.77135L77.6455 11.2136C77.6455 11.2136 76.2289 9.37743 74.0638 9.37743C71.6641 9.37743 70.0234 11.2191 70.0234 13.4083C70.0234 15.7198 71.7688 17.4934 74.0368 17.4934C76.2368 17.4934 77.6421 15.66 77.6421 15.66L80.1121 18.1011C80.1121 18.1011 78.0968 20.8951 74.095 20.8951ZM81.3874 20.5033V0.419922H84.8929V7.79867C84.8929 7.79867 86.2353 5.95551 89.1551 5.95551C92.8259 5.95551 94.9525 8.69328 94.9525 12.1947V20.5033H91.4469V12.7263C91.4469 10.3739 89.9871 9.39793 88.37 9.39793C86.5276 9.39793 84.893 10.45 84.893 12.9083V20.5033H81.3874Z" fill="white"/>
</g>
<defs>
<clipPath id="clip0_335_1567">
<rect width="95" height="29" fill="white"/>
</clipPath>
</defs>
</svg>
